PathFileType	4	(X/Y/Z)	s11c0001.trc
DataRate	CameraRate	NumFrames	NumMarkers	Units	OrigDataRate	OrigDataStartFrame	OrigNumFrames
200	200	4	49	mm	200	500	2000
Frame#	Time	racr			lacr			c7			jug			rlel			rdr			llel			ldr			s2			lic			ric			lasi			rasi			rpsi			lpsi			rgt			lgt			rth1			rth2			rth3			rth4			rlfc			rmfc			rsh1			rsh2			rsh3			rsh4			rlmal			rmmal			rcal			rtoe			rmt5			rmt1			lth1			lth2			lth4			lth3			llfc			lmfc			llmal			lmmal			lcal			lmt1			lmt5			lsh1			lsh2			lsh3			lsh4			ltoe			
		X1	Y1	Z1	X2	Y2	Z2	X3	Y3	Z3	X4	Y4	Z4	X5	Y5	Z5	X6	Y6	Z6	X7	Y7	Z7	X8	Y8	Z8	X9	Y9	Z9	X10	Y10	Z10	X11	Y11	Z11	X12	Y12	Z12	X13	Y13	Z13	X14	Y14	Z14	X15	Y15	Z15	X16	Y16	Z16	X17	Y17	Z17	X18	Y18	Z18	X19	Y19	Z19	X20	Y20	Z20	X21	Y21	Z21	X22	Y22	Z22	X23	Y23	Z23	X24	Y24	Z24	X25	Y25	Z25	X26	Y26	Z26	X27	Y27	Z27	X28	Y28	Z28	X29	Y29	Z29	X30	Y30	Z30	X31	Y31	Z31	X32	Y32	Z32	X33	Y33	Z33	X34	Y34	Z34	X35	Y35	Z35	X36	Y36	Z36	X37	Y37	Z37	X38	Y38	Z38	X39	Y39	Z39	X40	Y40	Z40	X41	Y41	Z41	X42	Y42	Z42	X43	Y43	Z43	X44	Y44	Z44	X45	Y45	Z45	X46	Y46	Z46	X47	Y47	Z47	X48	Y48	Z48	X49	Y49	Z49	
500	2.5000	481.709137	1569.373535	592.983582	452.259613	1596.165405	179.656357	386.812775	1619.648438	386.418457	549.767944	1560.224609	368.566010	484.070801	1310.740112	742.565186	615.605103	1084.471558	888.065796	423.792480	1300.789062	50.001442	549.112610	1062.030762	-127.405823	340.909760	1074.890259	393.357117	509.174713	1162.451050	175.991196	552.902405	1151.511597	567.517334	576.711914	1109.113892	205.346222	609.025574	1111.730103	521.756958	362.326782	1129.860840	448.135620	349.083221	1126.482056	345.428040	506.519775	960.829468	589.271057	442.621979	991.760315	174.613052	516.626221	833.561279	586.161438	536.925171	750.620667	560.623291	513.104309	668.665161	542.236328	570.830322	753.489136	548.238464	508.763336	563.088562	516.968811	503.372925	545.815369	397.246613	463.231750	413.827515	539.109192	478.321442	327.518982	525.136841	448.452423	244.871216	524.908875	504.510864	327.214386	496.074188	431.477722	108.594337	513.499023	463.349121	122.777817	425.997162	386.757233	80.279449	459.349396	667.366028	91.383095	519.010193	590.864319	54.188946	573.930847	609.821289	58.627739	458.448181	471.990631	858.864136	154.618881	491.362762	776.775696	169.376511	527.706055	775.539307	175.045532	465.265717	692.212219	183.583282	460.229645	550.353760	213.386871	474.407288	540.104675	339.537231	405.717194	117.321556	223.425186	436.658417	133.527710	297.720734	369.116333	68.542801	259.851440	592.821167	56.217068	292.016754	569.948303	55.391056	175.013535	423.040436	427.277130	192.544998	441.570740	343.477783	199.512497	415.968597	258.875824	203.078354	473.448608	343.934753	221.757202	660.136963	95.726616	244.014893	
501	2.5050	481.693115	1569.353516	592.984375	452.246582	1596.174683	179.663467	386.812775	1619.648438	386.418488	549.763123	1560.226318	368.584686	484.068207	1310.727905	742.547668	615.636169	1084.462158	888.059875	423.801025	1300.812378	50.008141	549.106140	1062.045288	-127.401581	340.897766	1074.901855	393.358093	509.148163	1162.465454	175.973251	552.888184	1151.507690	567.503479	576.704468	1109.114990	205.328583	609.042419	1111.737183	521.746582	362.326782	1129.860840	448.135620	349.072052	1126.493164	345.423431	506.495850	960.830872	589.269470	442.609436	991.763611	174.599976	516.615234	833.545410	586.147583	536.917236	750.627869	560.638977	513.085999	668.664001	542.234131	570.825256	753.486206	548.247986	508.778595	563.087524	516.975159	503.339691	545.788635	397.239807	463.231415	413.839020	539.105347	478.287415	327.505096	525.132141	448.457397	244.884842	524.915283	504.505920	327.221191	496.070953	431.505859	108.613777	513.487610	463.323395	122.775864	425.984894	386.762390	80.268456	459.339752	667.338684	91.375404	518.987915	590.872192	54.201138	573.947388	609.789795	58.659206	458.452423	471.967834	858.867798	154.596649	491.317322	776.785095	169.320694	527.691223	775.533997	175.017227	465.264954	692.214355	183.584824	460.202362	550.332825	213.393036	474.376556	540.091553	339.527740	405.694702	117.338783	223.426895	436.652527	133.530960	297.740295	369.115723	68.540352	259.860413	592.810913	56.221725	292.021393	569.944214	55.390636	175.010315	423.037872	427.275970	192.542984	441.574158	343.472809	199.504089	415.950562	258.886658	203.071457	473.445282	343.925507	221.754257	660.135864	95.721313	244.015839	
502	2.5100	481.688507	1569.345337	593.009094	452.275360	1596.213379	179.670135	386.818390	1619.659302	386.386414	549.775574	1560.235474	368.596497	484.079590	1310.702637	742.554626	615.645447	1084.438354	888.027161	423.814789	1300.833130	49.989079	549.080444	1062.065552	-127.425636	340.904266	1074.890991	393.326721	509.155060	1162.444824	175.969055	552.868713	1151.515381	567.482849	576.704224	1109.129028	205.321091	609.027466	1111.729370	521.757874	362.303192	1129.873535	448.123596	349.056122	1126.546021	345.466156	506.505829	960.822449	589.262207	442.586517	991.756958	174.609177	516.601379	833.547119	586.151428	536.907227	750.617554	560.632263	513.082947	668.652405	542.229980	570.820862	753.477356	548.242554	508.783417	563.089783	516.973083	503.372894	545.824219	397.251953	463.231659	413.833130	539.124634	478.293427	327.512115	525.140076	448.452484	244.861847	524.904724	504.506683	327.221649	496.096161	431.486206	108.585548	513.495850	463.355072	122.772697	425.979309	386.739899	80.286964	459.342163	667.364990	91.364967	518.989990	590.872803	54.206299	573.952820	609.835571	58.624256	458.483582	471.962799	858.869385	154.602646	491.320679	776.772278	169.348938	527.661865	775.524536	174.986206	465.250488	692.215027	183.585266	460.205078	550.328003	213.377777	474.432404	540.091492	339.529449	405.702728	117.329285	223.418472	436.650970	133.533493	297.729248	369.126404	68.548111	259.871307	592.818298	56.227913	292.012207	569.945618	55.379421	175.000229	423.046570	427.276642	192.542725	441.576660	343.480957	199.513168	415.930603	258.868896	203.066406	473.439575	343.949921	221.739578	660.125854	95.731590	244.010315	
503	2.5150	481.705292	1569.325073	593.013184	452.297363	1596.227295	179.685852	386.823303	1619.676147	386.475891	549.776123	1560.249390	368.595703	484.083862	1310.688965	742.544678	615.679993	1084.398804	887.989807	423.821655	1300.873657	50.010071	549.082642	1062.091431	-127.410698	340.915100	1074.883423	393.326874	509.155518	1162.463135	175.974792	552.873108	1151.530518	567.488831	576.688416	1109.127563	205.318878	609.040344	1111.748779	521.741394	362.303192	1129.873535	448.123596	349.074982	1126.474609	345.422913	506.495605	960.830933	589.270142	442.590759	991.757019	174.607834	516.601501	833.540222	586.156067	536.898132	750.617981	560.635376	513.084473	668.661926	542.233521	570.802185	753.475159	548.231873	508.774750	563.088013	516.979980	503.371216	545.814331	397.255341	463.224426	413.826630	539.110413	478.298309	327.513519	525.140991	448.459839	244.850281	524.902466	504.503204	327.214905	496.103241	431.499603	108.598846	513.507629	463.355591	122.772522	425.979370	386.753265	80.284164	459.339355	667.368469	91.373573	519.005676	590.867310	54.181141	573.944763	609.820984	58.649174	458.466064	471.962006	858.868347	154.607605	491.304932	776.776794	169.356888	527.663330	775.504150	174.998093	465.237732	692.202942	183.566208	460.191284	550.335327	213.374634	474.394623	540.087158	339.525146	405.703644	117.344154	223.408157	436.643616	133.527740	297.728607	369.120605	68.544205	259.866669	592.822571	56.210247	292.008148	569.944702	55.390511	175.009659	423.042358	427.269409	192.541565	441.575134	343.474884	199.512283	415.966736	258.868164	203.077698	473.458557	343.925354	221.760803	660.138489	95.728981	244.016510	
